<mxfile host="Electron" modified="2024-09-05T09:12:31.985Z" agent="Mozilla/5.0 (Windows NT 10.0; Win64; x64) AppleWebKit/537.36 (KHTML, like Gecko) draw.io/24.0.4 Chrome/120.0.6099.109 Electron/28.1.0 Safari/537.36" etag="qnKSQYSmJ0UeRdaZiuhe" version="24.0.4" type="device">
  <diagram name="Pagina-1" id="ZtaTluCmUSfnlEvWk6iM">
    <mxGraphModel dx="883" dy="557" grid="1" gridSize="10" guides="1" tooltips="1" connect="1" arrows="1" fold="1" page="1" pageScale="1" pageWidth="827" pageHeight="1169" math="0" shadow="0">
      <root>
        <mxCell id="0" />
        <mxCell id="1" parent="0" />
        <mxCell id="BzeFcc3B9BmPPYMDIgsp-13" value="REST API" style="shape=cube;whiteSpace=wrap;html=1;boundedLbl=1;backgroundOutline=1;darkOpacity=0.05;darkOpacity2=0.1;fillColor=#d5e8d4;strokeColor=#82b366;" vertex="1" parent="1">
          <mxGeometry x="420" y="190" width="80" height="80" as="geometry" />
        </mxCell>
        <mxCell id="BzeFcc3B9BmPPYMDIgsp-1" value="DBMS" style="shape=cylinder3;whiteSpace=wrap;html=1;boundedLbl=1;backgroundOutline=1;size=15;" vertex="1" parent="1">
          <mxGeometry x="120" y="190" width="60" height="80" as="geometry" />
        </mxCell>
        <mxCell id="BzeFcc3B9BmPPYMDIgsp-2" value="MySQL&lt;br&gt;SQL Server" style="text;html=1;align=center;verticalAlign=middle;whiteSpace=wrap;rounded=0;" vertex="1" parent="1">
          <mxGeometry x="100" y="290" width="100" height="30" as="geometry" />
        </mxCell>
        <mxCell id="BzeFcc3B9BmPPYMDIgsp-3" value="&lt;div&gt;C#&lt;/div&gt;" style="shape=cube;whiteSpace=wrap;html=1;boundedLbl=1;backgroundOutline=1;darkOpacity=0.05;darkOpacity2=0.1;fillColor=#d5e8d4;strokeColor=#82b366;" vertex="1" parent="1">
          <mxGeometry x="360" y="190" width="80" height="80" as="geometry" />
        </mxCell>
        <mxCell id="BzeFcc3B9BmPPYMDIgsp-4" style="edgeStyle=orthogonalEdgeStyle;rounded=0;orthogonalLoop=1;jettySize=auto;html=1;entryX=1;entryY=0.5;entryDx=0;entryDy=0;entryPerimeter=0;startArrow=classic;startFill=1;" edge="1" parent="1" source="BzeFcc3B9BmPPYMDIgsp-3" target="BzeFcc3B9BmPPYMDIgsp-1">
          <mxGeometry relative="1" as="geometry" />
        </mxCell>
        <mxCell id="BzeFcc3B9BmPPYMDIgsp-5" value="" style="shape=flexArrow;endArrow=classic;startArrow=classic;html=1;rounded=0;" edge="1" parent="1">
          <mxGeometry width="100" height="100" relative="1" as="geometry">
            <mxPoint x="120" y="370" as="sourcePoint" />
            <mxPoint x="440" y="370" as="targetPoint" />
          </mxGeometry>
        </mxCell>
        <mxCell id="BzeFcc3B9BmPPYMDIgsp-6" value="FrontEnd" style="text;html=1;align=center;verticalAlign=middle;whiteSpace=wrap;rounded=0;" vertex="1" parent="1">
          <mxGeometry x="520" y="430" width="60" height="30" as="geometry" />
        </mxCell>
        <mxCell id="BzeFcc3B9BmPPYMDIgsp-10" style="edgeStyle=orthogonalEdgeStyle;rounded=0;orthogonalLoop=1;jettySize=auto;html=1;startArrow=classic;startFill=1;entryX=0;entryY=0;entryDx=80;entryDy=50;entryPerimeter=0;" edge="1" parent="1" source="BzeFcc3B9BmPPYMDIgsp-9" target="BzeFcc3B9BmPPYMDIgsp-13">
          <mxGeometry relative="1" as="geometry">
            <mxPoint x="540" y="150" as="targetPoint" />
          </mxGeometry>
        </mxCell>
        <mxCell id="BzeFcc3B9BmPPYMDIgsp-9" value="Angular" style="shape=cube;whiteSpace=wrap;html=1;boundedLbl=1;backgroundOutline=1;darkOpacity=0.05;darkOpacity2=0.1;fillColor=#d5e8d4;strokeColor=#82b366;" vertex="1" parent="1">
          <mxGeometry x="610" y="200" width="120" height="80" as="geometry" />
        </mxCell>
        <mxCell id="BzeFcc3B9BmPPYMDIgsp-11" value="" style="shape=flexArrow;endArrow=classic;startArrow=classic;html=1;rounded=0;" edge="1" parent="1">
          <mxGeometry width="100" height="100" relative="1" as="geometry">
            <mxPoint x="440" y="405" as="sourcePoint" />
            <mxPoint x="720" y="404.58" as="targetPoint" />
          </mxGeometry>
        </mxCell>
        <mxCell id="BzeFcc3B9BmPPYMDIgsp-12" value="BackEnd" style="text;html=1;align=center;verticalAlign=middle;whiteSpace=wrap;rounded=0;" vertex="1" parent="1">
          <mxGeometry x="270" y="400" width="60" height="30" as="geometry" />
        </mxCell>
        <mxCell id="BzeFcc3B9BmPPYMDIgsp-14" value="" style="dashed=0;outlineConnect=0;html=1;align=center;labelPosition=center;verticalLabelPosition=bottom;verticalAlign=top;shape=mxgraph.weblogos.json_2" vertex="1" parent="1">
          <mxGeometry x="530" y="210" width="50" height="20" as="geometry" />
        </mxCell>
        <mxCell id="BzeFcc3B9BmPPYMDIgsp-15" value="" style="endArrow=none;dashed=1;html=1;dashPattern=1 3;strokeWidth=2;rounded=0;" edge="1" parent="1">
          <mxGeometry width="50" height="50" relative="1" as="geometry">
            <mxPoint x="290" y="470" as="sourcePoint" />
            <mxPoint x="290" y="110" as="targetPoint" />
          </mxGeometry>
        </mxCell>
        <mxCell id="BzeFcc3B9BmPPYMDIgsp-16" value="" style="endArrow=none;dashed=1;html=1;dashPattern=1 3;strokeWidth=2;rounded=0;" edge="1" parent="1" source="BzeFcc3B9BmPPYMDIgsp-24">
          <mxGeometry width="50" height="50" relative="1" as="geometry">
            <mxPoint x="554.58" y="470" as="sourcePoint" />
            <mxPoint x="554.58" y="110" as="targetPoint" />
          </mxGeometry>
        </mxCell>
        <mxCell id="BzeFcc3B9BmPPYMDIgsp-17" value="Database" style="text;html=1;align=center;verticalAlign=middle;whiteSpace=wrap;rounded=0;" vertex="1" parent="1">
          <mxGeometry x="120" y="120" width="60" height="30" as="geometry" />
        </mxCell>
        <mxCell id="BzeFcc3B9BmPPYMDIgsp-18" value="Business Logic" style="text;html=1;align=center;verticalAlign=middle;whiteSpace=wrap;rounded=0;" vertex="1" parent="1">
          <mxGeometry x="400" y="120" width="60" height="30" as="geometry" />
        </mxCell>
        <mxCell id="BzeFcc3B9BmPPYMDIgsp-19" value="User Interface" style="text;html=1;align=center;verticalAlign=middle;whiteSpace=wrap;rounded=0;" vertex="1" parent="1">
          <mxGeometry x="640" y="120" width="60" height="30" as="geometry" />
        </mxCell>
        <mxCell id="BzeFcc3B9BmPPYMDIgsp-20" value="" style="image;aspect=fixed;perimeter=ellipsePerimeter;html=1;align=center;shadow=0;dashed=0;spacingTop=3;image=img/lib/active_directory/generic_server.svg;" vertex="1" parent="1">
          <mxGeometry x="136" y="50" width="28.000000000000004" height="50" as="geometry" />
        </mxCell>
        <mxCell id="BzeFcc3B9BmPPYMDIgsp-21" value="" style="image;aspect=fixed;perimeter=ellipsePerimeter;html=1;align=center;shadow=0;dashed=0;spacingTop=3;image=img/lib/active_directory/generic_server.svg;" vertex="1" parent="1">
          <mxGeometry x="420" y="50" width="28.000000000000004" height="50" as="geometry" />
        </mxCell>
        <mxCell id="BzeFcc3B9BmPPYMDIgsp-22" value="" style="image;aspect=fixed;perimeter=ellipsePerimeter;html=1;align=center;shadow=0;dashed=0;spacingTop=3;image=img/lib/active_directory/generic_server.svg;" vertex="1" parent="1">
          <mxGeometry x="656" y="60" width="28.000000000000004" height="50" as="geometry" />
        </mxCell>
        <mxCell id="BzeFcc3B9BmPPYMDIgsp-23" value="" style="image;aspect=fixed;perimeter=ellipsePerimeter;html=1;align=center;shadow=0;dashed=0;spacingTop=3;image=img/lib/active_directory/internet_cloud.svg;" vertex="1" parent="1">
          <mxGeometry x="250" y="215" width="50" height="31.5" as="geometry" />
        </mxCell>
        <mxCell id="BzeFcc3B9BmPPYMDIgsp-25" value="" style="endArrow=none;dashed=1;html=1;dashPattern=1 3;strokeWidth=2;rounded=0;" edge="1" parent="1" target="BzeFcc3B9BmPPYMDIgsp-24">
          <mxGeometry width="50" height="50" relative="1" as="geometry">
            <mxPoint x="554.58" y="470" as="sourcePoint" />
            <mxPoint x="554.58" y="110" as="targetPoint" />
          </mxGeometry>
        </mxCell>
        <mxCell id="BzeFcc3B9BmPPYMDIgsp-24" value="" style="image;aspect=fixed;perimeter=ellipsePerimeter;html=1;align=center;shadow=0;dashed=0;spacingTop=3;image=img/lib/active_directory/internet_cloud.svg;" vertex="1" parent="1">
          <mxGeometry x="530" y="230" width="50" height="31.5" as="geometry" />
        </mxCell>
        <mxCell id="BzeFcc3B9BmPPYMDIgsp-26" value="Actor" style="shape=umlActor;verticalLabelPosition=bottom;verticalAlign=top;html=1;outlineConnect=0;fillColor=#d5e8d4;strokeColor=#82b366;" vertex="1" parent="1">
          <mxGeometry x="827" y="202" width="30" height="60" as="geometry" />
        </mxCell>
        <mxCell id="BzeFcc3B9BmPPYMDIgsp-27" style="edgeStyle=orthogonalEdgeStyle;rounded=0;orthogonalLoop=1;jettySize=auto;html=1;entryX=0;entryY=0;entryDx=120;entryDy=50;entryPerimeter=0;fillColor=#d5e8d4;strokeColor=#82b366;" edge="1" parent="1" source="BzeFcc3B9BmPPYMDIgsp-26" target="BzeFcc3B9BmPPYMDIgsp-9">
          <mxGeometry relative="1" as="geometry" />
        </mxCell>
        <mxCell id="BzeFcc3B9BmPPYMDIgsp-28" value="" style="endArrow=none;dashed=1;html=1;dashPattern=1 3;strokeWidth=2;rounded=0;" edge="1" parent="1">
          <mxGeometry width="50" height="50" relative="1" as="geometry">
            <mxPoint x="790" y="450" as="sourcePoint" />
            <mxPoint x="790" y="120" as="targetPoint" />
          </mxGeometry>
        </mxCell>
        <mxCell id="BzeFcc3B9BmPPYMDIgsp-29" value="Actor" style="shape=umlActor;verticalLabelPosition=bottom;verticalAlign=top;html=1;outlineConnect=0;fillColor=#f8cecc;strokeColor=#b85450;" vertex="1" parent="1">
          <mxGeometry x="656" y="500" width="30" height="60" as="geometry" />
        </mxCell>
        <mxCell id="BzeFcc3B9BmPPYMDIgsp-30" style="edgeStyle=orthogonalEdgeStyle;rounded=0;orthogonalLoop=1;jettySize=auto;html=1;entryX=0.996;entryY=0.769;entryDx=0;entryDy=0;entryPerimeter=0;" edge="1" parent="1" source="BzeFcc3B9BmPPYMDIgsp-29" target="BzeFcc3B9BmPPYMDIgsp-13">
          <mxGeometry relative="1" as="geometry">
            <mxPoint x="470" y="270" as="targetPoint" />
            <Array as="points">
              <mxPoint x="590" y="530" />
              <mxPoint x="590" y="252" />
            </Array>
          </mxGeometry>
        </mxCell>
        <mxCell id="BzeFcc3B9BmPPYMDIgsp-31" value="Actor" style="shape=umlActor;verticalLabelPosition=bottom;verticalAlign=top;html=1;outlineConnect=0;fillColor=#f8cecc;strokeColor=#b85450;" vertex="1" parent="1">
          <mxGeometry x="340" y="490" width="30" height="60" as="geometry" />
        </mxCell>
        <mxCell id="BzeFcc3B9BmPPYMDIgsp-33" style="edgeStyle=orthogonalEdgeStyle;rounded=0;orthogonalLoop=1;jettySize=auto;html=1;entryX=1;entryY=0;entryDx=0;entryDy=52.5;entryPerimeter=0;" edge="1" parent="1" source="BzeFcc3B9BmPPYMDIgsp-31" target="BzeFcc3B9BmPPYMDIgsp-1">
          <mxGeometry relative="1" as="geometry">
            <Array as="points">
              <mxPoint x="320" y="520" />
              <mxPoint x="320" y="243" />
            </Array>
          </mxGeometry>
        </mxCell>
        <mxCell id="BzeFcc3B9BmPPYMDIgsp-34" value="REST API" style="shape=cube;whiteSpace=wrap;html=1;boundedLbl=1;backgroundOutline=1;darkOpacity=0.05;darkOpacity2=0.1;" vertex="1" parent="1">
          <mxGeometry x="430" y="950" width="80" height="80" as="geometry" />
        </mxCell>
        <mxCell id="BzeFcc3B9BmPPYMDIgsp-35" value="DBMS" style="shape=cylinder3;whiteSpace=wrap;html=1;boundedLbl=1;backgroundOutline=1;size=15;" vertex="1" parent="1">
          <mxGeometry x="130" y="950" width="60" height="80" as="geometry" />
        </mxCell>
        <mxCell id="BzeFcc3B9BmPPYMDIgsp-36" value="MySQL&lt;br&gt;SQL Server" style="text;html=1;align=center;verticalAlign=middle;whiteSpace=wrap;rounded=0;" vertex="1" parent="1">
          <mxGeometry x="110" y="1050" width="100" height="30" as="geometry" />
        </mxCell>
        <mxCell id="BzeFcc3B9BmPPYMDIgsp-37" value="&lt;div&gt;C#&lt;/div&gt;" style="shape=cube;whiteSpace=wrap;html=1;boundedLbl=1;backgroundOutline=1;darkOpacity=0.05;darkOpacity2=0.1;" vertex="1" parent="1">
          <mxGeometry x="370" y="950" width="80" height="80" as="geometry" />
        </mxCell>
        <mxCell id="BzeFcc3B9BmPPYMDIgsp-42" value="&lt;div&gt;Sito web&lt;/div&gt;Angular" style="shape=cube;whiteSpace=wrap;html=1;boundedLbl=1;backgroundOutline=1;darkOpacity=0.05;darkOpacity2=0.1;" vertex="1" parent="1">
          <mxGeometry x="620" y="870" width="120" height="80" as="geometry" />
        </mxCell>
        <mxCell id="BzeFcc3B9BmPPYMDIgsp-46" value="" style="endArrow=none;dashed=1;html=1;dashPattern=1 3;strokeWidth=2;rounded=0;" edge="1" parent="1" source="BzeFcc3B9BmPPYMDIgsp-75">
          <mxGeometry width="50" height="50" relative="1" as="geometry">
            <mxPoint x="300" y="1230" as="sourcePoint" />
            <mxPoint x="285" y="870" as="targetPoint" />
          </mxGeometry>
        </mxCell>
        <mxCell id="BzeFcc3B9BmPPYMDIgsp-47" value="" style="endArrow=none;dashed=1;html=1;dashPattern=1 3;strokeWidth=2;rounded=0;" edge="1" parent="1" source="BzeFcc3B9BmPPYMDIgsp-56">
          <mxGeometry width="50" height="50" relative="1" as="geometry">
            <mxPoint x="564.58" y="1230" as="sourcePoint" />
            <mxPoint x="564.58" y="870" as="targetPoint" />
            <Array as="points">
              <mxPoint x="565" y="890" />
            </Array>
          </mxGeometry>
        </mxCell>
        <mxCell id="BzeFcc3B9BmPPYMDIgsp-48" value="Database" style="text;html=1;align=center;verticalAlign=middle;whiteSpace=wrap;rounded=0;" vertex="1" parent="1">
          <mxGeometry x="130" y="880" width="60" height="30" as="geometry" />
        </mxCell>
        <mxCell id="BzeFcc3B9BmPPYMDIgsp-49" value="Business Logic" style="text;html=1;align=center;verticalAlign=middle;whiteSpace=wrap;rounded=0;" vertex="1" parent="1">
          <mxGeometry x="410" y="880" width="60" height="30" as="geometry" />
        </mxCell>
        <mxCell id="BzeFcc3B9BmPPYMDIgsp-50" value="User Interface" style="text;html=1;align=center;verticalAlign=middle;whiteSpace=wrap;rounded=0;" vertex="1" parent="1">
          <mxGeometry x="650" y="750" width="60" height="30" as="geometry" />
        </mxCell>
        <mxCell id="BzeFcc3B9BmPPYMDIgsp-51" value="" style="image;aspect=fixed;perimeter=ellipsePerimeter;html=1;align=center;shadow=0;dashed=0;spacingTop=3;image=img/lib/active_directory/generic_server.svg;" vertex="1" parent="1">
          <mxGeometry x="146" y="810" width="28.000000000000004" height="50" as="geometry" />
        </mxCell>
        <mxCell id="BzeFcc3B9BmPPYMDIgsp-52" value="" style="image;aspect=fixed;perimeter=ellipsePerimeter;html=1;align=center;shadow=0;dashed=0;spacingTop=3;image=img/lib/active_directory/generic_server.svg;" vertex="1" parent="1">
          <mxGeometry x="430" y="810" width="28.000000000000004" height="50" as="geometry" />
        </mxCell>
        <mxCell id="BzeFcc3B9BmPPYMDIgsp-53" value="" style="image;aspect=fixed;perimeter=ellipsePerimeter;html=1;align=center;shadow=0;dashed=0;spacingTop=3;image=img/lib/active_directory/generic_server.svg;" vertex="1" parent="1">
          <mxGeometry x="666" y="690" width="28.000000000000004" height="50" as="geometry" />
        </mxCell>
        <mxCell id="BzeFcc3B9BmPPYMDIgsp-55" value="" style="endArrow=none;dashed=1;html=1;dashPattern=1 3;strokeWidth=2;rounded=0;" edge="1" parent="1" target="BzeFcc3B9BmPPYMDIgsp-56">
          <mxGeometry width="50" height="50" relative="1" as="geometry">
            <mxPoint x="564.58" y="1230" as="sourcePoint" />
            <mxPoint x="564.58" y="870" as="targetPoint" />
          </mxGeometry>
        </mxCell>
        <mxCell id="BzeFcc3B9BmPPYMDIgsp-56" value="" style="image;aspect=fixed;perimeter=ellipsePerimeter;html=1;align=center;shadow=0;dashed=0;spacingTop=3;image=img/lib/active_directory/internet_cloud.svg;" vertex="1" parent="1">
          <mxGeometry x="540" y="976.25" width="50" height="31.5" as="geometry" />
        </mxCell>
        <mxCell id="BzeFcc3B9BmPPYMDIgsp-57" value="Actor" style="shape=umlActor;verticalLabelPosition=bottom;verticalAlign=top;html=1;outlineConnect=0;fillColor=#d5e8d4;strokeColor=#82b366;" vertex="1" parent="1">
          <mxGeometry x="837" y="962" width="30" height="60" as="geometry" />
        </mxCell>
        <mxCell id="BzeFcc3B9BmPPYMDIgsp-58" style="edgeStyle=orthogonalEdgeStyle;rounded=0;orthogonalLoop=1;jettySize=auto;html=1;entryX=0;entryY=0;entryDx=120;entryDy=50;entryPerimeter=0;fillColor=#d5e8d4;strokeColor=#82b366;" edge="1" parent="1" source="BzeFcc3B9BmPPYMDIgsp-57" target="BzeFcc3B9BmPPYMDIgsp-42">
          <mxGeometry relative="1" as="geometry" />
        </mxCell>
        <mxCell id="BzeFcc3B9BmPPYMDIgsp-59" value="" style="endArrow=none;dashed=1;html=1;dashPattern=1 3;strokeWidth=2;rounded=0;" edge="1" parent="1">
          <mxGeometry width="50" height="50" relative="1" as="geometry">
            <mxPoint x="800" y="1210" as="sourcePoint" />
            <mxPoint x="800" y="880" as="targetPoint" />
          </mxGeometry>
        </mxCell>
        <mxCell id="BzeFcc3B9BmPPYMDIgsp-64" value="App Mobile&lt;br&gt;Flutter" style="shape=cube;whiteSpace=wrap;html=1;boundedLbl=1;backgroundOutline=1;darkOpacity=0.05;darkOpacity2=0.1;" vertex="1" parent="1">
          <mxGeometry x="620" y="1000" width="120" height="80" as="geometry" />
        </mxCell>
        <mxCell id="BzeFcc3B9BmPPYMDIgsp-65" style="edgeStyle=orthogonalEdgeStyle;rounded=0;orthogonalLoop=1;jettySize=auto;html=1;entryX=0;entryY=0;entryDx=120;entryDy=50;entryPerimeter=0;fillColor=#d5e8d4;strokeColor=#82b366;" edge="1" parent="1" source="BzeFcc3B9BmPPYMDIgsp-57" target="BzeFcc3B9BmPPYMDIgsp-64">
          <mxGeometry relative="1" as="geometry" />
        </mxCell>
        <mxCell id="BzeFcc3B9BmPPYMDIgsp-67" style="edgeStyle=orthogonalEdgeStyle;rounded=0;orthogonalLoop=1;jettySize=auto;html=1;entryX=0;entryY=0;entryDx=80;entryDy=50;entryPerimeter=0;" edge="1" parent="1" source="BzeFcc3B9BmPPYMDIgsp-42" target="BzeFcc3B9BmPPYMDIgsp-34">
          <mxGeometry relative="1" as="geometry">
            <Array as="points">
              <mxPoint x="590" y="910" />
              <mxPoint x="590" y="1000" />
            </Array>
          </mxGeometry>
        </mxCell>
        <mxCell id="BzeFcc3B9BmPPYMDIgsp-68" style="edgeStyle=orthogonalEdgeStyle;rounded=0;orthogonalLoop=1;jettySize=auto;html=1;entryX=0;entryY=0;entryDx=80;entryDy=50;entryPerimeter=0;exitX=0;exitY=0;exitDx=0;exitDy=30;exitPerimeter=0;" edge="1" parent="1" source="BzeFcc3B9BmPPYMDIgsp-64" target="BzeFcc3B9BmPPYMDIgsp-34">
          <mxGeometry relative="1" as="geometry">
            <Array as="points">
              <mxPoint x="590" y="1030" />
              <mxPoint x="590" y="1000" />
            </Array>
          </mxGeometry>
        </mxCell>
        <mxCell id="BzeFcc3B9BmPPYMDIgsp-69" value="Totem Ordini&lt;div&gt;ReactJS&lt;/div&gt;" style="shape=cube;whiteSpace=wrap;html=1;boundedLbl=1;backgroundOutline=1;darkOpacity=0.05;darkOpacity2=0.1;" vertex="1" parent="1">
          <mxGeometry x="620" y="1120" width="120" height="80" as="geometry" />
        </mxCell>
        <mxCell id="BzeFcc3B9BmPPYMDIgsp-70" style="edgeStyle=orthogonalEdgeStyle;rounded=0;orthogonalLoop=1;jettySize=auto;html=1;entryX=0;entryY=0;entryDx=120;entryDy=50;entryPerimeter=0;fillColor=#d5e8d4;strokeColor=#82b366;" edge="1" parent="1" source="BzeFcc3B9BmPPYMDIgsp-57" target="BzeFcc3B9BmPPYMDIgsp-69">
          <mxGeometry relative="1" as="geometry" />
        </mxCell>
        <mxCell id="BzeFcc3B9BmPPYMDIgsp-71" style="edgeStyle=orthogonalEdgeStyle;rounded=0;orthogonalLoop=1;jettySize=auto;html=1;entryX=0;entryY=0;entryDx=80;entryDy=50;entryPerimeter=0;" edge="1" parent="1" source="BzeFcc3B9BmPPYMDIgsp-69" target="BzeFcc3B9BmPPYMDIgsp-34">
          <mxGeometry relative="1" as="geometry">
            <Array as="points">
              <mxPoint x="590" y="1160" />
              <mxPoint x="590" y="1000" />
            </Array>
          </mxGeometry>
        </mxCell>
        <mxCell id="BzeFcc3B9BmPPYMDIgsp-74" value="HTTPS" style="text;html=1;align=center;verticalAlign=middle;whiteSpace=wrap;rounded=0;" vertex="1" parent="1">
          <mxGeometry x="535" y="978" width="60" height="30" as="geometry" />
        </mxCell>
        <mxCell id="BzeFcc3B9BmPPYMDIgsp-77" value="" style="endArrow=none;dashed=1;html=1;dashPattern=1 3;strokeWidth=2;rounded=0;" edge="1" parent="1" target="BzeFcc3B9BmPPYMDIgsp-75">
          <mxGeometry width="50" height="50" relative="1" as="geometry">
            <mxPoint x="285" y="1230" as="sourcePoint" />
            <mxPoint x="300" y="870" as="targetPoint" />
          </mxGeometry>
        </mxCell>
        <mxCell id="BzeFcc3B9BmPPYMDIgsp-75" value="" style="shape=cylinder3;whiteSpace=wrap;html=1;boundedLbl=1;backgroundOutline=1;size=9.22222900390625;rotation=90;fillColor=#fff2cc;strokeColor=#d6b656;" vertex="1" parent="1">
          <mxGeometry x="267.5" y="897.5" width="30" height="185" as="geometry" />
        </mxCell>
        <mxCell id="BzeFcc3B9BmPPYMDIgsp-78" value="Certificato di sicurezza&lt;div&gt;&lt;br&gt;&lt;/div&gt;&lt;div&gt;IP FILTERING&lt;/div&gt;" style="text;html=1;align=center;verticalAlign=middle;whiteSpace=wrap;rounded=0;" vertex="1" parent="1">
          <mxGeometry x="298" y="1060" width="122" height="30" as="geometry" />
        </mxCell>
        <mxCell id="BzeFcc3B9BmPPYMDIgsp-79" value="Actor" style="shape=umlActor;verticalLabelPosition=bottom;verticalAlign=top;html=1;outlineConnect=0;fillColor=#f8cecc;strokeColor=#b85450;" vertex="1" parent="1">
          <mxGeometry x="380" y="1210" width="30" height="60" as="geometry" />
        </mxCell>
        <mxCell id="BzeFcc3B9BmPPYMDIgsp-80" style="edgeStyle=orthogonalEdgeStyle;rounded=0;orthogonalLoop=1;jettySize=auto;html=1;entryX=1;entryY=1;entryDx=0;entryDy=-15;entryPerimeter=0;fillColor=#f8cecc;strokeColor=#b85450;" edge="1" parent="1" source="BzeFcc3B9BmPPYMDIgsp-79" target="BzeFcc3B9BmPPYMDIgsp-35">
          <mxGeometry relative="1" as="geometry">
            <Array as="points">
              <mxPoint x="310" y="1240" />
              <mxPoint x="310" y="1015" />
            </Array>
          </mxGeometry>
        </mxCell>
        <mxCell id="BzeFcc3B9BmPPYMDIgsp-81" value="192.168.5.6 OK" style="text;html=1;align=center;verticalAlign=middle;whiteSpace=wrap;rounded=0;" vertex="1" parent="1">
          <mxGeometry x="130" y="920" width="60" height="30" as="geometry" />
        </mxCell>
        <mxCell id="BzeFcc3B9BmPPYMDIgsp-82" value="192.168.5.6" style="text;html=1;align=center;verticalAlign=middle;whiteSpace=wrap;rounded=0;" vertex="1" parent="1">
          <mxGeometry x="360" y="930" width="60" height="30" as="geometry" />
        </mxCell>
        <mxCell id="BzeFcc3B9BmPPYMDIgsp-83" value="10.2.5.6" style="text;html=1;align=center;verticalAlign=middle;whiteSpace=wrap;rounded=0;" vertex="1" parent="1">
          <mxGeometry x="330" y="1210" width="60" height="30" as="geometry" />
        </mxCell>
      </root>
    </mxGraphModel>
  </diagram>
</mxfile>
